<!DOCTYPE svg PUBLIC "-//W3C//DTD SVG 1.1//EN" "http://www.w3.org/Graphics/SVG/1.1/DTD/svg11.dtd">
<!-- Uploaded to: SVG Repo, www.svgrepo.com, Transformed by: SVG Repo Mixer Tools -->
<svg width="64px" height="64px" viewBox="0 0 32 32" fill="none" xmlns="http://www.w3.org/2000/svg">
<g id="SVGRepo_bgCarrier" stroke-width="0"/>
<g id="SVGRepo_tracerCarrier" stroke-linecap="round" stroke-linejoin="round"/>
<g id="SVGRepo_iconCarrier"> <g clip-path="url(#clip0_901_1422)"> <path d="M18 22.0315L11 15.0155C10.172 14.1875 9.836 14.1725 9 15.0085L1 23.0005V30.0005C1 30.5525 1.447 31.0005 2 31.0005H30C30.553 31.0005 31 30.5525 31 30.0005V2.00049C31 1.44749 30.553 1.00049 30 1.00049H2C1.447 1.00049 1 1.44749 1 2.00049V19.0005M16 24.0002L23 17.0002C23.836 16.1642 24.172 16.1722 25 17.0002L28 20.0002M23 9.00019C23 10.1042 22.104 11.0002 21 11.0002C19.896 11.0002 19 10.1042 19 9.00019C19 7.89619 19.896 7.00019 21 7.00019C22.104 7.00019 23 7.89619 23 9.00019Z" stroke="#ffffff" stroke-width="2" stroke-linecap="round" stroke-linejoin="round"/> </g> <defs> <clipPath id="clip0_901_1422"> <rect width="32" height="32" fill="white"/> </clipPath> </defs> </g>
</svg>