<?xml version="1.0" encoding="utf-8"?>
<!-- Generator: Adobe Illustrator 23.1.0, SVG Export Plug-In . SVG Version: 6.00 Build 0)  -->
<svg version="1.1" id="Capa_1" xmlns="http://www.w3.org/2000/svg" xmlns:xlink="http://www.w3.org/1999/xlink" x="0px" y="0px"
	 viewBox="0 0 1080 1080" style="enable-background:new 0 0 1080 1080;" xml:space="preserve">
<style type="text/css">
	.st0{fill:#1B559D;}
	.st1{fill:#2E9DCD;}
	.st2{fill:#F7FBFA;}
	.st3{fill:#FEFEFD;}
	.st4{fill:#FFFFFF;}
	.st5{fill:#040006;}
	.st6{fill:#E4B144;}
	.st7{opacity:0.31;fill:#FFFFFF;}
</style>
<g>
	<path class="st0" d="M280.86,357.19h-65.58c16.53-35.59,38.81-67.85,65.58-95.47V357.19z"/>
	<path class="st0" d="M280.86,579.92H189.8c-4.88-23.47-7.45-47.84-7.45-72.82c0-26.51,2.87-52.3,8.35-77.1h90.16V579.92z"/>
	<path class="st0" d="M819.87,661.3c-13.54,28.06-30.63,53.97-50.67,77.1H267.97c-20.05-23.13-37.14-49.04-50.63-77.1H819.87z"/>
	<path class="st0" d="M507.88,275.81v81.38h-154.2V204.71c48.7-28.4,104.98-44.55,164.9-44.55c99.59,0,189.06,44.67,250.61,115.65
		H507.88z"/>
	<path class="st1" d="M847.13,430.54H507.34v-73.89h314.89l0.14,0.31c10.83,23.21,19.11,47.75,24.62,72.93L847.13,430.54z
		 M508.41,429.47H845.8c-5.47-24.76-13.63-48.89-24.26-71.74H508.41V429.47z"/>
	<path class="st0" d="M854.78,511.39c-0.26,23.47-2.78,46.39-7.41,68.53H353.68V430.01h154.2v81.38H854.78z"/>
	<path class="st2" d="M821.88,357.19h-314v-81.38H769.2C790.27,300.09,808.09,327.46,821.88,357.19z"/>
	<path class="st0" d="M846.47,430.01H507.88v-72.82h314C832.59,380.15,840.9,404.56,846.47,430.01z"/>
	<path class="st2" d="M854.82,507.1c0,1.41,0,2.87-0.04,4.28h-346.9v-81.38h338.59C851.95,454.81,854.82,480.59,854.82,507.1z"/>
	<path class="st3" d="M769.2,738.4c-15.03,17.3-31.7,33.07-49.77,46.99c-58.29-12.68-129.65-21.29-215.83-21.29
		c-24.8,0-94.19,0-183.15,23.3c-19.15-14.39-36.71-30.84-52.47-49H769.2z"/>
	<path class="st3" d="M847.37,579.92c-5.87,28.61-15.21,55.9-27.5,81.38H217.34c-12.34-25.49-21.67-52.77-27.54-81.38h91.06V430.01
		H190.7c5.57-25.44,13.88-49.86,24.59-72.82h65.58v-95.47c21.59-22.23,46.04-41.46,72.82-57.01v152.48h154.2v72.82h-154.2v149.91
		H847.37z"/>
	<path d="M870.1,512.13c0.04-1.02,0.04-2.02,0.04-3.01V508c-0.08-27.18-3.18-54.29-9.18-80.59c-6.05-26.44-15-52.05-26.59-76.11
		c-14.84-30.88-34.02-59.5-57.06-85.07C710.69,192.25,616.01,149.8,517.51,149.8c-60.01,0-119.25,15.63-171.28,45.19
		c-27.73,15.67-53.33,35.22-76.13,58.12c-14.64,14.68-28.15,30.82-40.18,48.02l-0.88,1.32c-0.51,0.75-1.02,1.49-1.47,2.18
		c-41.02,60.19-62.68,130.89-62.68,204.48c0,109.44,48.06,211.57,131.85,280.13c0.79,0.69,1.61,1.36,2.46,2.04
		c1.75-0.49,3.52-0.98,5.29-1.45c-0.35-0.26-0.71-0.55-1.06-0.83c-1.28-1.04-2.56-2.06-3.83-3.16
		c-82.79-67.77-130.28-168.63-130.28-276.73c0-72.69,21.42-142.54,61.95-202l2.32-3.46c11.85-16.96,25.2-32.9,39.65-47.41
		c22.51-22.6,47.8-41.91,75.18-57.39c51.36-29.19,109.84-44.6,169.08-44.6c97.24,0,190.72,41.89,256.51,114.95
		c22.74,25.22,41.69,53.5,56.35,84.01c11.46,23.76,20.3,49.06,26.26,75.18c5.92,25.97,8.98,52.76,9.06,79.59v1.12
		c0,1.08,0,2.16-0.04,3.24v0.47c-0.26,27.66-3.64,55.04-10.08,81.37c-0.9,3.68-1.81,7.31-2.79,10.91c-0.83,3.18-1.77,6.35-2.75,9.53
		c-0.83,2.79-1.71,5.56-2.65,8.31c-5.13,15.41-11.24,30.31-18.14,44.28c-14.01,28.72-31.92,55.51-53.23,79.59
		c-13.76,15.55-28.95,29.92-45.37,42.93c1.87,0.39,3.73,0.79,5.58,1.22c15.47-12.48,29.94-26.3,43.12-41.2
		c21.6-24.39,39.74-51.5,53.9-80.59c6.98-14.15,13.17-29.21,18.36-44.8c0.96-2.79,1.83-5.62,2.69-8.43c1-3.24,1.93-6.47,2.79-9.69
		c0.98-3.62,1.91-7.29,2.81-10.99c6.49-26.61,9.93-54.27,10.22-82.24l0.12-0.57L870.1,512.13z"/>
	<g>
		<path d="M505.73,704.13c-107.46,0-194.89-87.43-194.89-194.89s87.43-194.89,194.89-194.89s194.89,87.43,194.89,194.89
			S613.2,704.13,505.73,704.13z M505.73,318.64c-105.1,0-190.6,85.5-190.6,190.6s85.51,190.6,190.6,190.6s190.6-85.5,190.6-190.6
			S610.83,318.64,505.73,318.64z"/>
		<path class="st4" d="M505.73,314.36c107.46,0,194.89,87.43,194.89,194.89c0,107.46-87.43,194.89-194.89,194.89
			s-194.89-87.43-194.89-194.89C310.85,401.78,398.27,314.36,505.73,314.36 M505.73,699.85c105.1,0,190.6-85.5,190.6-190.6
			c0-105.1-85.51-190.6-190.6-190.6s-190.6,85.5-190.6,190.6C315.13,614.35,400.64,699.85,505.73,699.85 M505.73,312.32
			c-108.58,0-196.92,88.34-196.92,196.92c0,108.58,88.34,196.92,196.92,196.92s196.92-88.34,196.92-196.92
			C702.66,400.66,614.32,312.32,505.73,312.32L505.73,312.32z M505.73,697.81c-103.98,0-188.57-84.59-188.57-188.57
			s84.59-188.57,188.57-188.57c103.98,0,188.57,84.59,188.57,188.57S609.71,697.81,505.73,697.81L505.73,697.81z"/>
	</g>
	<path class="st5" d="M45.9,130.81l-2.5,125.32l-1.33,62.64c-0.06,2.66-0.24,5.14,0.57,7.5c0.71,2.43,2.13,4.35,3.86,6.4l9.82,12.27
		l19.64,24.55l0,0l0.2,0.25l-0.01,0.33c-1.75,84.9-4.86,169.75-8.07,254.59l-4.76,127.27l-2.38,63.64l-0.6,15.91l-0.3,7.95
		c-0.01,0.63-0.07,1.4-0.05,1.91c0.01,0.3,0.13,0.77,0.32,1.29c0.39,1.03,1,2.1,1.68,3.13c5.7,8.09,15.03,14.55,24.98,14.97
		c4.99,0.27,10.06-0.82,14.34-3.24c4.29-2.41,7.75-6.3,9.57-10.81c0.91-2.35,1.3-4.42,1.13-7.14l-0.21-7.96l-0.42-15.91l-1.67-63.65
		l-3.34-127.3l-6.27-254.62l0-0.05l-0.01-0.35l0.23-0.26l20.98-23.6l10.49-11.8c1.78-1.8,2.68-4.06,2.58-6.56v-7.89v-63.14V130.18
		l0.88,0.88h-12.85l0.88-0.88v83.68v41.84v20.92v10.46c-0.04,0.86,0.1,1.71-0.15,2.81c-0.24,1.02-0.82,1.97-1.61,2.65
		c-0.79,0.7-1.8,1.13-2.84,1.25c-1.05,0.06-1.79,0.02-2.71,0.03c-0.91-0.01-1.65,0.03-2.71-0.03c-1.05-0.12-2.06-0.55-2.84-1.25
		c-0.79-0.69-1.36-1.63-1.61-2.65c-0.25-1.1-0.11-1.95-0.15-2.81v-10.46V255.7v-41.84v-83.68l0.88,0.88H96.68l0.88-0.88v83.61v41.81
		v20.9v10.45c-0.02,0.81,0.08,1.79-0.23,2.84c-0.29,0.99-0.86,1.9-1.63,2.59c-0.76,0.7-1.73,1.16-2.75,1.35
		c-1.1,0.16-1.87,0.06-2.76,0.09c-0.92-0.03-1.62,0.06-2.74-0.07c-1.03-0.15-2.02-0.63-2.78-1.33c-0.77-0.7-1.32-1.64-1.57-2.66
		c-0.25-1.09-0.11-1.95-0.15-2.81V276.5v-20.9v-41.81v-83.61l0.88,0.88H70.99l0.88-0.88v84.45v42.23v21.11
		c-0.07,3.6,0.16,6.86-0.16,10.74c-0.43,2-1.85,3.73-3.72,4.55c-0.91,0.43-2,0.58-2.93,0.56h-2.64h-2.64
		c-0.92,0.02-2.02-0.13-2.93-0.56c-1.87-0.82-3.29-2.55-3.72-4.55c-0.31-3.88-0.09-7.14-0.16-10.74v-21.11v-42.23v-84.45l0.88,0.88
		C51.2,131.07,48.61,130.96,45.9,130.81z M44.67,129.55c3-0.15,6.12-0.26,9.18-0.25l0.88,0v0.88v84.45v42.23v21.11
		c0.05,3.43-0.12,7.24,0.12,10.36c0.31,1.45,1.35,2.73,2.72,3.32c1.28,0.64,3.06,0.34,4.85,0.41c1.79-0.07,3.58,0.23,4.85-0.41
		c1.37-0.6,2.41-1.87,2.72-3.32c0.23-3.12,0.06-6.93,0.12-10.36v-21.11v-42.23v-84.45v-0.88h0.88h12.85h0.88v0.88v83.61v41.81v20.9
		v10.45c-0.08,1.87,0.01,3.16,1.15,4.17c1.04,1.06,2.48,0.96,4.34,0.94c1.86,0.04,3.24,0.07,4.34-0.99c0.53-0.47,0.92-1.1,1.12-1.77
		c0.21-0.63,0.15-1.43,0.16-2.35V276.5v-20.9v-41.81v-83.61v-0.88h0.88h12.85h0.88v0.88v83.68v41.84v20.92v10.46
		c-0.08,1.88,0,3.16,1.16,4.15c0.52,0.46,1.18,0.74,1.87,0.82c0.69,0.04,1.69,0.01,2.52,0.02c0.83-0.01,1.84,0.02,2.52-0.02
		c0.69-0.08,1.35-0.36,1.87-0.82c1.15-0.98,1.23-2.27,1.16-4.15v-10.46V255.7v-41.84v-83.68v-0.88h0.88h12.85h0.88v0.88v126.29
		v63.14v7.89c0.16,2.78-1.06,5.81-3.02,7.72l-10.49,11.8l-20.98,23.6l0.22-0.61l0,0.05l7.62,254.63l3.6,127.32l1.8,63.66l0.45,15.92
		l0.22,7.96c0.21,2.58-0.28,5.87-1.36,8.44c-2.14,5.34-6.14,9.81-11.09,12.61c-4.95,2.82-10.69,4.03-16.28,3.74
		c-5.68-0.22-11.14-2.19-15.84-5.14c-4.73-2.94-8.84-6.75-12.04-11.4c-0.78-1.19-1.51-2.43-2.07-3.88
		c-0.27-0.73-0.52-1.53-0.56-2.57c-0.02-0.81,0.03-1.37,0.05-2.06l0.28-7.96l0.56-15.91l2.25-63.64l4.5-127.28
		c2.96-84.85,6.02-169.71,10.44-254.51l0.19,0.58l0,0l-19.64-24.55l-9.82-12.27c-1.64-1.93-3.42-4.31-4.16-6.98
		c-0.91-2.66-0.72-5.52-0.65-8.08l1.4-63.07L44.67,129.55z"/>
	<path class="st5" d="M83.83,847.09c-10.51,0-18.74-13.87-18.74-31.59c0-17.71,8.23-31.59,18.74-31.59s18.74,13.87,18.74,31.59
		C102.57,833.21,94.34,847.09,83.83,847.09z M83.83,787.12c-8.42,0-15.53,12.99-15.53,28.38s7.11,28.38,15.53,28.38
		s15.53-12.99,15.53-28.38S92.25,787.12,83.83,787.12z"/>
	<path class="st5" d="M971.55,369.71l2.77,63.98l2.52,63.71l4.94,127.2l4.39,126.98l2.16,63.52l0.54,15.88l0.27,7.94l0.12,4.05
		c-0.01,1.53-0.26,3.05-0.73,4.5c-0.95,2.9-2.82,5.48-5.3,7.28c-1.27,0.95-2.64,1.52-3.84,2.08c-1.26,0.56-2.54,1.07-3.84,1.54
		c-5.2,1.81-10.73,2.86-16.28,2.76c-5.55-0.03-11.07-1.18-16.2-3.2c-1.31-0.46-2.54-1.07-3.78-1.65c-1.2-0.51-2.64-1.34-3.77-2.3
		c-2.33-1.94-4.07-4.6-4.84-7.55c-0.39-1.45-0.52-3.07-0.46-4.46l0.14-3.98l0.29-7.96l0.57-15.93l2.29-63.7l4.59-127.4l9.72-254.78
		l0-0.04l0.62,0.84c-12.45-3.65-23.38-11.4-31.83-21.03c-8.48-9.67-14.96-20.92-19.88-32.73c-9.7-23.7-13.7-49.59-12.53-75.1
		c0.96-25.49,6.92-51.1,19.37-73.55c6.26-11.14,14.3-21.49,24.57-29.31c10.15-7.77,22.92-12.94,35.96-12.06
		c12.99,0.58,25.31,6.37,35.05,14.73c9.74,8.46,17.31,19.11,23.21,30.45c5.91,11.38,9.99,23.63,12.83,36.08
		c2.76,12.47,4.47,25.23,4.53,38.02c0.4,25.51-3.8,51.37-14.4,74.76c-5.29,11.64-12.17,22.69-21.12,31.94
		c-4.64,4.43-9.51,8.73-15.17,11.87c-1.41,0.78-2.78,1.65-4.22,2.36l-4.48,1.85c-0.75,0.3-1.5,0.64-2.24,0.9l-2.17,0.53
		L971.55,369.71z M970.24,368.66c6.65-1.88,12.67-3.59,17.96-7.03c5.51-3.05,10.26-7.25,14.81-11.59
		c8.78-9.07,15.57-19.96,20.79-31.46c10.47-23.1,14.65-48.75,14.25-74.03c-0.06-12.68-1.75-25.32-4.49-37.68
		c-2.81-12.33-6.85-24.45-12.69-35.69c-5.83-11.2-13.29-21.67-22.81-29.95c-9.53-8.17-21.48-13.76-34.03-14.33
		c-12.59-0.86-24.95,4.14-34.87,11.72c-10.03,7.63-17.95,17.8-24.12,28.79c-12.28,22.15-18.21,47.53-19.15,72.8
		c-1.17,25.3,2.81,50.96,12.4,74.39c4.86,11.67,11.26,22.76,19.58,32.26c8.3,9.46,18.97,16.99,31.02,20.53l0.64,0.19l-0.02,0.65
		l0,0.04l-8.14,254.82l-4.34,127.4l-2.17,63.7l-0.54,15.92l-0.27,7.96l-0.14,3.98c-0.05,1.26,0.05,2.31,0.34,3.43
		c0.58,2.19,1.88,4.19,3.64,5.64c1.67,1.39,4.2,2.37,6.54,3.34c4.75,1.85,9.8,2.9,14.89,2.92c5.08,0.08,10.16-0.89,14.97-2.57
		c2.29-0.86,5-1.92,6.71-3.13c1.82-1.33,3.21-3.25,3.91-5.4c0.35-1.08,0.53-2.21,0.53-3.33l-0.12-3.91l-0.28-7.98l-0.57-15.97
		l-2.27-63.89l-4.47-127.82l-3.91-127.6l-1.91-63.7L970.24,368.66z"/>
	<path class="st5" d="M961.9,350.77c-36.02,0-65.32-46.12-65.32-102.8s29.3-102.8,65.32-102.8c36.02,0,65.32,46.12,65.32,102.8
		S997.92,350.77,961.9,350.77z M961.9,147.31c-34.83,0-63.18,45.15-63.18,100.66s28.34,100.66,63.18,100.66
		c34.83,0,63.18-45.15,63.18-100.66S996.73,147.31,961.9,147.31z"/>
	<path class="st5" d="M957.62,847.09c-10.51,0-18.74-13.87-18.74-31.59c0-17.71,8.23-31.59,18.74-31.59s18.74,13.87,18.74,31.59
		C976.36,833.21,968.12,847.09,957.62,847.09z M957.62,787.12c-8.42,0-15.53,12.99-15.53,28.38s7.11,28.38,15.53,28.38
		c8.42,0,15.53-12.99,15.53-28.38S966.03,787.12,957.62,787.12z"/>
	<path d="M876.23,888.32v-34.28c0,0-58.26-29.6-162.51-48.16c-2.73-0.47-5.5-0.96-8.31-1.42c-4.36-0.73-8.79-1.45-13.31-2.14
		c-87.13-13.33-202.34-18.12-339.67,5.68c-4.25,0.73-8.55,1.49-12.84,2.3c-2.54,0.45-5.11,0.94-7.67,1.42
		c-51.28,9.75-105.53,23.57-162.42,42.32l4.3,29.99h-72.82c0,0,71.74-57.41,198.23-92.74c1.75-0.49,3.52-0.98,5.29-1.45
		c4.68-1.28,9.45-2.52,14.27-3.73c0.04-0.04,0.14-0.08,0.22-0.08c42.61-10.65,90.91-18.5,144.19-20.99
		c4.95-0.26,9.57-0.47,13.86-0.59c4.23-0.14,8.18-0.22,11.73-0.26c3.48-0.04,6.98-0.08,10.54-0.08c0,0,0.47,0,1.42,0
		c12.76,0.08,110.19,1.53,214.66,22.43c5.07,1.02,10.16,2.08,15.25,3.2c1.87,0.39,3.73,0.79,5.58,1.22
		c79.76,17.89,160.59,47.68,208.55,97.37C923.35,888.32,876.23,888.32,876.23,888.32z"/>
	<g>
		<path d="M246.58,847.86c-2.74,0.16-4.73,0.49-5.96,0.98c-1.23,0.5-2.07,1.43-2.5,2.8c-0.44,1.37-0.66,3.61-0.66,6.71v60.6
			c0,3.1,0.22,5.34,0.66,6.71c0.44,1.37,1.27,2.31,2.5,2.8c1.23,0.5,3.22,0.83,5.96,0.98v2.45h-37.7v-2.45
			c2.66-0.16,4.63-0.49,5.9-0.98c1.27-0.5,2.13-1.43,2.56-2.8c0.44-1.37,0.66-3.61,0.66-6.71v-60.6c0-3.1-0.22-5.34-0.66-6.71
			c-0.44-1.37-1.29-2.31-2.56-2.8c-1.27-0.5-3.24-0.83-5.9-0.98v-2.45h37.7V847.86z"/>
		<path d="M304.62,845.03c2.52,0.82,5.1,2,7.72,3.55c0.87,0.52,1.66,0.93,2.36,1.25c0.7,0.32,1.28,0.48,1.76,0.48
			c0.75,0,1.33-0.43,1.73-1.28c0.4-0.85,0.72-2.22,0.95-4.09h2.8c-0.4,5.45-0.6,14.73-0.6,27.85h-2.8
			c-0.32-4.41-1.31-8.62-2.98-12.61c-1.67-4-4.04-7.23-7.1-9.69c-3.06-2.47-6.62-3.7-10.68-3.7c-3.98,0-7.21,1.11-9.69,3.34
			c-2.49,2.23-3.73,5.25-3.73,9.07c0,2.86,0.61,5.36,1.82,7.49c1.21,2.13,2.92,4.07,5.13,5.82c2.21,1.75,5.58,4.12,10.11,7.1
			l3.94,2.74c4.81,3.14,8.6,5.9,11.36,8.26c2.76,2.37,5.02,5.12,6.77,8.26c1.75,3.14,2.62,6.78,2.62,10.92
			c0,5.21-1.34,9.59-4.03,13.15c-2.68,3.56-6.33,6.23-10.94,8.02c-4.61,1.79-9.72,2.68-15.33,2.68c-4.57,0-8.36-0.41-11.36-1.22
			c-3-0.81-5.78-1.92-8.32-3.31c-1.79-1.15-3.16-1.73-4.12-1.73c-0.76,0-1.33,0.43-1.73,1.28c-0.4,0.86-0.72,2.22-0.95,4.09h-2.8
			c0.32-5.13,0.48-16.12,0.48-32.98h2.8c0.56,9.15,2.58,16.54,6.08,22.19c3.5,5.65,8.89,8.47,16.16,8.47
			c4.37,0,7.99-1.17,10.86-3.52c2.86-2.35,4.29-5.73,4.29-10.14c0-4.57-1.47-8.48-4.41-11.72c-2.94-3.24-7.6-6.91-13.96-11
			c-4.85-3.18-8.75-5.95-11.69-8.32c-2.94-2.37-5.35-5.15-7.22-8.35c-1.87-3.2-2.8-6.93-2.8-11.18c0-4.89,1.24-9.03,3.73-12.41
			c2.48-3.38,5.81-5.88,9.96-7.52c4.15-1.63,8.72-2.45,13.69-2.45C298.73,843.81,302.1,844.22,304.62,845.03z"/>
		<path d="M418.61,927.52c1.39,1.21,2.72,1.86,4,1.94v2.45h-37.1v-2.45c3.1-0.16,5.3-0.55,6.59-1.16c1.29-0.62,1.94-1.7,1.94-3.25
			c0-1.47-0.48-3.42-1.43-5.84l-7.34-20.04h-26.66l-3.16,8.41c-2.27,5.88-3.4,10.42-3.4,13.6c0,3.02,0.91,5.12,2.74,6.29
			c1.83,1.17,4.53,1.84,8.11,2v2.45h-24.45v-2.45c4.02-0.72,7.52-4.99,10.5-12.82l27.85-71.45h8.47l29.64,76.46
			C415.99,924.35,417.22,926.31,418.61,927.52z M384.37,896.71l-12.05-32.98l-12.7,32.98H384.37z"/>
		<path d="M505.67,893.79c4.97,4.06,7.46,8.87,7.46,14.43c0,7.55-2.97,13.39-8.92,17.51c-5.94,4.12-14.21,6.17-24.78,6.17h-40.56
			v-2.45c2.66-0.16,4.63-0.49,5.9-0.98c1.27-0.5,2.13-1.43,2.56-2.8c0.44-1.37,0.66-3.61,0.66-6.71v-60.6c0-3.1-0.22-5.34-0.66-6.71
			c-0.44-1.37-1.29-2.31-2.56-2.8c-1.27-0.5-3.24-0.83-5.9-0.98v-2.45l37.7,0.12c9.78,0,17.26,1.75,22.43,5.25
			c5.17,3.5,7.75,8.15,7.75,13.96c0,4.69-2.06,9.08-6.17,13.15c-4.12,4.08-10.19,6.85-18.22,8.32v0.24
			C492.92,887.29,500.7,889.74,505.67,893.79z M470.18,848.73c-1.03,0.58-1.75,1.59-2.15,3.04c-0.4,1.45-0.6,3.65-0.6,6.59v27.62
			h5.25c5.29,0,9-1.81,11.12-5.43c2.13-3.62,3.19-8.45,3.19-14.49c0-6.08-0.96-10.64-2.89-13.66c-1.93-3.02-4.96-4.53-9.1-4.53
			C472.82,847.86,471.21,848.15,470.18,848.73z M492.84,907.69c0-6.4-1.63-11.27-4.89-14.61c-3.26-3.34-8.39-5.01-15.39-5.01h-5.13
			v30.9c0,2.94,0.2,5.1,0.6,6.47c0.4,1.37,1.19,2.33,2.39,2.86s3,0.8,5.43,0.8C487.18,929.1,492.84,921.96,492.84,907.69z"/>
		<path d="M597.86,931.9H530.1v-2.45c2.66-0.16,4.63-0.49,5.91-0.98c1.27-0.5,2.13-1.43,2.56-2.8c0.44-1.37,0.66-3.61,0.66-6.71
			v-60.6c0-3.1-0.22-5.34-0.66-6.71c-0.44-1.37-1.29-2.31-2.56-2.8c-1.27-0.5-3.24-0.83-5.91-0.98v-2.45h65.31
			c-0.56,6.76-0.83,12.78-0.83,18.07c0,3.58,0.12,6.34,0.36,8.29h-2.8c-1.23-8.71-3.43-14.81-6.59-18.31
			c-3.16-3.5-7.64-5.25-13.45-5.25h-5.01c-2.5,0-4.33,0.21-5.49,0.63c-1.15,0.42-1.93,1.21-2.33,2.39c-0.4,1.17-0.6,3.07-0.6,5.7
			v30.24h3.88c4.33,0,7.62-1.58,9.87-4.74c2.25-3.16,3.81-6.95,4.68-11.36h2.8c-0.24,3.42-0.36,7.26-0.36,11.51v5.84
			c0,4.14,0.24,9.92,0.72,17.36h-2.8c-1.71-10.77-6.68-16.16-14.91-16.16h-3.88v30.78c0,2.63,0.2,4.52,0.6,5.7
			c0.4,1.17,1.17,1.97,2.33,2.39c1.15,0.42,2.98,0.63,5.49,0.63h6.02c5.76,0,10.42-1.98,13.96-5.93c3.54-3.96,6.04-10.65,7.52-20.07
			h2.8c-0.24,2.66-0.36,6.08-0.36,10.26C597.02,920.83,597.3,927.01,597.86,931.9z"/>
		<path d="M655.15,847.86c-2.94,0.16-5.09,0.49-6.44,0.98c-1.35,0.5-2.27,1.43-2.74,2.8c-0.48,1.37-0.72,3.61-0.72,6.71v62.03
			c0,2.63,0.2,4.52,0.6,5.7c0.4,1.17,1.11,1.97,2.15,2.39c1.03,0.42,2.68,0.63,4.95,0.63h5.96c5.57,0,10.36-2.48,14.37-7.46
			c4.02-4.97,6.64-11.57,7.87-19.8h2.8c-0.24,2.78-0.36,6.36-0.36,10.74c0,7.83,0.28,14.28,0.83,19.33h-67.76v-2.45
			c2.66-0.16,4.63-0.49,5.91-0.98c1.27-0.5,2.13-1.43,2.56-2.8c0.44-1.37,0.66-3.61,0.66-6.71v-60.6c0-3.1-0.22-5.34-0.66-6.71
			c-0.44-1.37-1.29-2.31-2.56-2.8c-1.27-0.5-3.24-0.83-5.91-0.98v-2.45h38.47V847.86z"/>
		<path d="M738.93,847.86c-2.94,0.16-5.09,0.49-6.44,0.98c-1.35,0.5-2.27,1.43-2.74,2.8c-0.48,1.37-0.72,3.61-0.72,6.71v62.03
			c0,2.63,0.2,4.52,0.6,5.7c0.4,1.17,1.11,1.97,2.15,2.39c1.03,0.42,2.68,0.63,4.95,0.63h5.96c5.57,0,10.36-2.48,14.37-7.46
			c4.02-4.97,6.64-11.57,7.87-19.8h2.8c-0.24,2.78-0.36,6.36-0.36,10.74c0,7.83,0.28,14.28,0.83,19.33h-67.76v-2.45
			c2.66-0.16,4.63-0.49,5.91-0.98c1.27-0.5,2.13-1.43,2.56-2.8c0.44-1.37,0.66-3.61,0.66-6.71v-60.6c0-3.1-0.22-5.34-0.66-6.71
			c-0.44-1.37-1.29-2.31-2.56-2.8c-1.27-0.5-3.24-0.83-5.91-0.98v-2.45h38.47V847.86z"/>
		<path d="M862.97,927.52c1.39,1.21,2.72,1.86,4,1.94v2.45h-37.1v-2.45c3.1-0.16,5.3-0.55,6.59-1.16c1.29-0.62,1.94-1.7,1.94-3.25
			c0-1.47-0.48-3.42-1.43-5.84l-7.34-20.04h-26.66l-3.16,8.41c-2.27,5.88-3.4,10.42-3.4,13.6c0,3.02,0.91,5.12,2.74,6.29
			c1.83,1.17,4.53,1.84,8.11,2v2.45H782.8v-2.45c4.02-0.72,7.51-4.99,10.5-12.82l27.85-71.45h8.47l29.64,76.46
			C860.34,924.35,861.57,926.31,862.97,927.52z M828.73,896.71l-12.05-32.98l-12.7,32.98H828.73z"/>
	</g>
</g>
</svg>
